<?xml version="1.0" encoding="UTF-8" standalone="no"?>
<!-- Created with Inkscape (http://www.inkscape.org/) -->

<svg
   version="1.1"
   id="svg2"
   width="426.12"
   height="430.57333"
   viewBox="0 0 426.12 430.57333"
   sodipodiDocname="UQ_logo.eps"
   xmlnsInkscape="http://www.inkscape.org/namespaces/inkscape"
   xmlnsSodipodi="http://sodipodi.sourceforge.net/DTD/sodipodi-0.dtd"
   xmlns="http://www.w3.org/2000/svg"
   xmlnsSvg="http://www.w3.org/2000/svg">
  <defs
     id="defs6" />
  <sodipodiNamedview
     id="namedview4"
     pagecolor="#ffffff"
     bordercolor="#000000"
     borderopacity="0.25"
     inkscapeShowpageshadow="2"
     inkscapePageopacity="0.0"
     inkscapePagecheckerboard="0"
     inkscapeDeskcolor="#d1d1d1" />
  <g
     id="g8"
     inkscapeGroupmode="layer"
     inkscapeLabel="ink_ext_XXXXXX"
     transform="matrix(1.3333333,0,0,-1.3333333,0,430.57333)">
    <g
       id="g10"
       transform="scale(0.1)">
      <path
         d="M 415.406,1128.65 V 851.898 c 0,-31.597 -6.777,-59.25 -20.332,-82.937 -13.554,-23.691 -33.164,-41.922 -58.801,-54.711 -25.644,-12.77 -56.308,-19.16 -92.011,-19.16 -53.047,0 -94.297,14.051 -123.75,42.129 -29.4417,28.09 -44.1682,66.711 -44.1682,115.851 v 275.58 H 146.559 V 858.039 c 0,-35.301 8.183,-61.34 24.57,-78.098 16.387,-16.781 41.543,-25.171 75.476,-25.171 65.918,0 98.887,34.621 98.887,103.859 v 270.021 h 69.914"
         style="fill:#100f0d;fill-opacity:1;fill-rule:nonzero;stroke:none"
         id="path12" />
      <path
         d="m 802.152,700.941 h -69.043 v 198.938 c 0,24.961 -5.019,43.59 -15.066,55.883 -10.039,12.277 -25.977,18.418 -47.824,18.418 -29.071,0 -50.321,-8.578 -63.77,-25.739 -13.457,-17.171 -20.195,-45.929 -20.195,-86.312 V 700.941 h -68.75 v 323.569 h 53.84 l 9.648,-42.428 h 3.516 c 9.746,15.406 23.594,27.298 41.543,35.698 17.929,8.38 37.832,12.58 59.676,12.58 77.617,0 116.425,-39.508 116.425,-118.489 v -210.93"
         style="fill:#100f0d;fill-opacity:1;fill-rule:nonzero;stroke:none"
         id="path14" />
      <path
         d="m 966.566,700.941 h -68.757 v 323.569 h 68.757 z m -72.851,409.269 c 0,12.29 3.371,21.76 10.098,28.38 6.73,6.64 16.328,9.96 28.808,9.96 12.102,0 21.516,-3.32 28.234,-9.96 6.727,-6.62 10.098,-16.09 10.098,-28.38 0,-11.7 -3.371,-20.92 -10.098,-27.64 -6.718,-6.73 -16.132,-10.08 -28.234,-10.08 -12.48,0 -22.078,3.35 -28.808,10.08 -6.727,6.72 -10.098,15.94 -10.098,27.64"
         style="fill:#100f0d;fill-opacity:1;fill-rule:nonzero;stroke:none"
         id="path16" />
      <path
         d="m 1185.4,750.68 c 16.76,0 33.54,2.64 50.31,7.902 v -51.793 c -7.6,-3.309 -17.4,-6.09 -29.4,-8.328 -11.99,-2.242 -24.43,-3.371 -37.3,-3.371 -65.14,0 -97.71,34.332 -97.71,102.98 v 174.36 h -44.17 v 30.42 l 47.39,25.16 23.4,68.46 h 42.43 v -71.96 h 92.15 v -52.08 h -92.15 V 799.238 c 0,-16.578 4.14,-28.816 12.43,-36.707 8.29,-7.902 19.16,-11.851 32.62,-11.851"
         style="fill:#100f0d;fill-opacity:1;fill-rule:nonzero;stroke:none"
         id="path18" />
      <path
         d="m 1429.08,978.281 c -21.84,0 -39.35,-6.929 -52.51,-20.781 -13.17,-13.84 -21.02,-34.031 -23.55,-60.551 h 146.86 c -0.39,26.723 -6.83,46.949 -19.31,60.711 -12.49,13.75 -29.65,20.621 -51.49,20.621 z m 12.59,-283.191 c -50.32,0 -89.67,14.68 -118.04,44.039 -28.38,29.34 -42.57,69.769 -42.57,121.25 0,52.859 13.16,94.391 39.49,124.621 26.33,30.23 62.5,45.36 108.53,45.36 42.71,0 76.45,-12.97 101.23,-38.911 24.76,-25.949 37.15,-61.629 37.15,-107.078 v -37.152 h -215.61 c 0.97,-31.399 9.46,-55.539 25.45,-72.41 16,-16.868 38.52,-25.297 67.58,-25.297 19.11,0 36.9,1.789 53.4,5.41 16.47,3.609 34.17,9.598 53.09,17.988 v -55.879 c -16.78,-7.992 -33.75,-13.652 -50.91,-16.972 -17.16,-3.309 -36.76,-4.969 -58.79,-4.969"
         style="fill:#100f0d;fill-opacity:1;fill-rule:nonzero;stroke:none"
         id="path20" />
      <path
         d="m 1773.12,750.68 c 28.27,0 48.86,7.941 61.73,23.851 12.88,15.879 19.5,41.68 19.89,77.367 v 9.661 c 0,40.761 -6.63,69.711 -19.89,86.882 -13.26,17.161 -34.03,25.739 -62.32,25.739 -24.18,0 -42.81,-9.801 -55.87,-29.399 -13.07,-19.601 -19.6,-47.543 -19.6,-83.812 0,-35.899 6.33,-63.239 19.02,-82.071 12.67,-18.816 31.68,-28.218 57.04,-28.218 z m -18.43,-55.59 c -40.37,0 -71.86,14.629 -94.5,43.89 -22.62,29.25 -33.93,70.301 -33.93,123.149 0,53.062 11.46,94.351 34.37,123.91 22.92,29.541 54.67,44.321 95.22,44.321 42.52,0 74.9,-15.71 97.13,-47.11 h 3.52 c -3.32,23.21 -4.98,41.55 -4.98,55.01 v 117.89 h 69.04 V 700.941 h -53.83 l -11.99,42.418 h -3.22 C 1829.48,711.18 1797.2,695.09 1754.69,695.09"
         style="fill:#100f0d;fill-opacity:1;fill-rule:nonzero;stroke:none"
         id="path22" />
      <path
         d="m 142.23,316.238 c 0,-52.648 10.637,-92.59 31.895,-119.797 21.25,-27.203 52.754,-40.8 94.492,-40.8 41.543,0 72.891,13.461 94.055,40.371 21.16,26.91 31.746,66.988 31.746,120.226 0,52.473 -10.488,92.25 -31.453,119.364 -20.969,27.109 -52.219,40.668 -93.762,40.668 -41.933,0 -73.574,-13.559 -94.93,-40.668 C 152.914,408.488 142.23,368.711 142.23,316.238 Z m 326.497,0 c 0,-51.879 -9.903,-95.558 -29.7,-131.058 -19.793,-35.5 -48.613,-60.461 -86.445,-74.879 L 454.977,0 h -94.211 l -80.731,95.9609 h -11.418 c -64.558,0 -114.14,19.1601 -148.758,57.4801 -34.6207,38.329 -51.9332,92.789 -51.9332,163.387 0,70.602 17.4101,124.832 52.2262,162.66 34.813,37.832 84.5,56.75 149.051,56.75 63.586,0 112.727,-19.199 147.453,-57.629 34.707,-38.429 52.071,-92.539 52.071,-162.371"
         style="fill:#100f0d;fill-opacity:1;fill-rule:nonzero;stroke:none"
         id="path24" />
      <path
         d="m 781.449,101.809 -9.656,42.41 h -3.508 c -9.558,-15.02 -23.152,-26.809 -40.808,-35.399 -17.649,-8.57 -37.793,-12.8591 -60.411,-12.8591 -39.199,0 -68.457,9.7501 -87.765,29.2501 -19.305,19.5 -28.965,49.051 -28.965,88.641 v 211.519 h 69.336 V 225.84 c 0,-24.758 5.07,-43.352 15.215,-55.719 10.136,-12.391 26.035,-18.582 47.687,-18.582 28.856,0 50.067,8.633 63.633,25.902 13.555,17.25 20.32,46.168 20.32,86.719 V 425.371 H 835.57 V 101.809 h -54.121"
         style="fill:#100f0d;fill-opacity:1;fill-rule:nonzero;stroke:none"
         id="path26" />
      <path
         d="m 1062.3,379.148 c -21.85,0 -39.36,-6.937 -52.51,-20.777 C 996.617,344.52 988.766,324.328 986.234,297.82 H 1133.1 c -0.4,26.711 -6.84,46.942 -19.32,60.7 -12.48,13.75 -29.64,20.628 -51.48,20.628 z m 12.58,-283.1871 c -50.31,0 -89.661,14.6681 -118.04,44.0271 -28.379,29.352 -42.567,69.774 -42.567,121.25 0,52.864 13.165,94.391 39.493,124.633 26.328,30.231 62.494,45.348 108.534,45.348 42.71,0 76.45,-12.969 101.22,-38.91 24.77,-25.95 37.15,-61.629 37.15,-107.071 v -37.16 H 985.063 c 0.976,-31.406 9.464,-55.539 25.447,-72.398 16,-16.879 38.53,-25.301 67.58,-25.301 19.11,0 36.91,1.781 53.4,5.41 16.47,3.602 34.17,9.602 53.09,17.981 v -55.872 c -16.77,-7.988 -33.75,-13.66 -50.9,-16.968 -17.16,-3.3089 -36.76,-4.9691 -58.8,-4.9691"
         style="fill:#100f0d;fill-opacity:1;fill-rule:nonzero;stroke:none"
         id="path28" />
      <path
         d="m 1407.5,379.148 c -21.84,0 -39.34,-6.937 -52.5,-20.777 -13.18,-13.851 -21.03,-34.043 -23.56,-60.551 h 146.87 c -0.39,26.711 -6.84,46.942 -19.31,60.7 -12.49,13.75 -29.65,20.628 -51.5,20.628 z m 12.58,-283.1871 c -50.31,0 -89.66,14.6681 -118.03,44.0271 -28.38,29.352 -42.57,69.774 -42.57,121.25 0,52.864 13.16,94.391 39.49,124.633 26.33,30.231 62.5,45.348 108.53,45.348 42.72,0 76.46,-12.969 101.23,-38.91 24.77,-25.95 37.15,-61.629 37.15,-107.071 v -37.16 h -215.61 c 0.98,-31.406 9.46,-55.539 25.46,-72.398 15.98,-16.879 38.51,-25.301 67.57,-25.301 19.12,0 36.91,1.781 53.39,5.41 16.49,3.602 34.17,9.602 53.11,17.981 v -55.872 c -16.78,-7.988 -33.76,-13.66 -50.92,-16.968 -17.16,-3.3089 -36.76,-4.9691 -58.8,-4.9691"
         style="fill:#100f0d;fill-opacity:1;fill-rule:nonzero;stroke:none"
         id="path30" />
      <path
         d="m 1788.12,431.219 c 13.84,0 25.25,-0.981 34.23,-2.918 l -6.74,-64.082 c -9.76,2.34 -19.89,3.519 -30.42,3.519 -27.51,0 -49.78,-8.988 -66.85,-26.918 -17.08,-17.941 -25.59,-41.25 -25.59,-69.929 V 101.809 h -68.76 v 323.562 h 53.84 l 9.06,-57.051 h 3.51 c 10.73,19.309 24.72,34.61 41.99,45.918 17.25,11.313 35.83,16.981 55.73,16.981"
         style="fill:#100f0d;fill-opacity:1;fill-rule:nonzero;stroke:none"
         id="path32" />
      <path
         d="m 2009.86,151.539 c 28.27,0 48.86,7.949 61.72,23.852 12.88,15.879 19.51,41.679 19.9,77.379 v 9.652 c 0,40.758 -6.63,69.707 -19.9,86.879 -13.26,17.168 -34.03,25.738 -62.32,25.738 -24.18,0 -42.8,-9.801 -55.87,-29.398 -13.06,-19.602 -19.6,-47.532 -19.6,-83.813 0,-35.887 6.34,-63.238 19.03,-82.058 12.66,-18.829 31.68,-28.231 57.04,-28.231 z m -18.44,-55.5781 c -40.36,0 -71.86,14.6171 -94.49,43.8791 -22.62,29.262 -33.93,70.301 -33.93,123.16 0,53.051 11.45,94.352 34.37,123.898 22.92,29.543 54.66,44.321 95.22,44.321 42.52,0 74.9,-15.699 97.13,-47.098 h 3.52 c -3.33,23.199 -4.98,41.539 -4.98,55 v 117.891 h 69.04 V 101.809 h -53.83 l -11.99,42.41 h -3.22 c -22.04,-32.168 -54.32,-48.2581 -96.84,-48.2581"
         style="fill:#100f0d;fill-opacity:1;fill-rule:nonzero;stroke:none"
         id="path34" />
      <path
         d="m 2307.08,264.16 c 0,-74.691 27.61,-112.031 82.8,-112.031 54.61,0 81.91,37.34 81.91,112.031 0,73.918 -27.5,110.879 -82.5,110.879 -28.87,0 -49.78,-9.559 -62.74,-28.66 -12.97,-19.117 -19.47,-46.52 -19.47,-82.219 z m 235.5,0 c 0,-52.851 -13.55,-94.101 -40.65,-123.738 -27.12,-29.641 -64.85,-44.4611 -113.21,-44.4611 -30.25,0 -56.96,6.8201 -80.16,20.4801 -23.22,13.641 -41.06,33.239 -53.55,58.797 -12.48,25.551 -18.72,55.184 -18.72,88.922 0,52.469 13.46,93.422 40.38,122.879 26.91,29.449 64.84,44.18 113.8,44.18 46.81,0 83.86,-15.059 111.16,-45.199 27.31,-30.141 40.95,-70.75 40.95,-121.86"
         style="fill:#100f0d;fill-opacity:1;fill-rule:nonzero;stroke:none"
         id="path36" />
      <path
         d="m 2894.23,101.809 h -69.04 V 301.32 c 0,24.77 -4.69,43.25 -14.04,55.442 -9.37,12.187 -23.99,18.277 -43.88,18.277 -26.52,0 -45.99,-8.617 -58.37,-25.879 -12.38,-17.269 -18.57,-45.98 -18.57,-86.16 V 101.809 h -68.75 v 323.562 h 53.83 l 9.64,-42.43 h 3.52 c 8.97,15.399 21.98,27.309 39.06,35.7 17.05,8.39 35.83,12.578 56.31,12.578 49.74,0 82.7,-16.981 98.88,-50.91 h 4.68 c 9.56,15.992 23.01,28.472 40.38,37.453 17.35,8.957 37.25,13.457 59.67,13.457 38.62,0 66.75,-9.758 84.4,-29.25 17.65,-19.508 26.48,-49.258 26.48,-89.239 V 101.809 h -68.75 V 301.32 c 0,24.77 -4.73,43.25 -14.19,55.442 -9.46,12.187 -24.14,18.277 -44.03,18.277 -26.72,0 -46.27,-8.328 -58.65,-25.008 -12.39,-16.672 -18.58,-42.269 -18.58,-76.781 V 101.809"
         style="fill:#100f0d;fill-opacity:1;fill-rule:nonzero;stroke:none"
         id="path38" />
      <path
         d="m 3195.94,1057.47 -300.49,345.94 h -561.71 l 293.23,-369.37 h 568.97 v 23.43"
         style="fill:#792694;fill-opacity:1;fill-rule:nonzero;stroke:none"
         id="path40" />
      <path
         d="m 3042.77,1772.79 h -964.33 c -0.38,-0.28 -0.7,-0.59 -1.1,-0.85 -7.83,-5.13 -15.09,-10.3 -20.68,-18.4 -4.54,-6.55 -12.2,-10.93 -18.48,-16.26 2.3,-13.55 -4.65,-21.06 -20.98,-22.28 -3.55,-0.26 -7.19,0.68 -10.78,0.61 -3.54,-0.07 -7.08,-0.72 -12.04,-1.28 7.27,-11.01 -1.03,-20.48 -0.78,-30.61 0.06,-2.36 -3.3,-6.06 -5.87,-7.01 -8.65,-3.18 -16.66,-8.91 -26.71,-7.51 -2.7,0.38 -5.59,-0.46 -9.36,-0.83 0.84,-2.68 0.85,-5.43 2.1,-6.24 7.81,-5.03 16.02,-9.42 23.8,-14.48 3.2,-2.08 6.45,-4.84 8.26,-8.08 2.53,-4.56 5.4,-5.67 10.48,-5.4 11.57,0.65 23.21,0.56 34.81,0.34 4.63,-0.1 9.22,-1.45 13.85,-2.03 6.5,-0.82 7.05,-5.56 4.59,-9.47 -4.93,-7.8 -4.71,-16.08 -5.84,-24.68 -1,-7.58 -6.52,-15.03 -11.48,-21.42 -2.1,-2.7 -7.84,-2.82 -12.03,-3.54 -10.99,-1.87 -21.99,-2.55 -31.55,-9.98 -5.19,-4.02 -7.83,-7.55 -7.54,-14.12 0.52,-11.17 -6.13,-15.31 -16.43,-10.65 -1.94,0.88 -3.49,2.59 -5.42,3.52 -4.71,2.34 -9.4,4.07 -13.62,-1.26 -1.29,-1.62 -3.27,-3.29 -5.22,-3.73 -10.85,-2.43 -21.73,-5.06 -32.75,-6.41 -4.53,-0.56 -7.97,-1.23 -11.56,-4.36 -7.78,-6.73 -14.81,-9.57 -21.88,-8.76 v 0 c 121.98,-60.78 269.18,-91.21 441.7,-91.21 l 1.2,-1.2 v -1.19 l 1.2,-1.2 15.41,-19.41 h 561.71 l -106.33,122.42 c 107.46,58.83 191.95,141.21 253.65,246.96"
         style="fill:#445db4;fill-opacity:1;fill-rule:nonzero;stroke:none"
         id="path42" />
      <path
         d="m 1850.8,1530.06 c 1.4,-0.77 2.85,-1.5 4.27,-2.26 -1.4,0.94 -2.83,1.73 -4.27,2.26 v 0"
         style="fill:#445db4;fill-opacity:1;fill-rule:nonzero;stroke:none"
         id="path44" />
      <path
         d="m 1128.75,1505.21 c -7.7,-1.82 -15.18,-4.54 -22.89,-6.27 -9.42,-2.1 -13.97,3.15 -10.95,12.07 3.7,10.94 18.93,22.53 30.45,23.1 1.42,0.06 3.17,0.16 4.24,-0.54 8.76,-5.72 16.6,-2.34 24.44,2.1 17.68,10.04 33.32,21.61 44.29,39.9 5.44,9.08 15.82,16.71 28.29,17.48 6.12,0.38 11.95,0.04 10.62,9.34 -0.27,1.85 3.52,5.99 5.77,6.26 18.24,2.12 26.36,14.61 31.67,29.97 2.7,7.79 4.73,15.84 6.76,23.85 1.16,4.54 4.25,5.86 8.14,5.17 3.49,-0.62 6.99,-1.87 10.18,-3.46 14.01,-6.95 25.29,-0.87 27.06,14.62 0.49,4.29 1.25,8.59 2.37,12.75 2.09,7.82 4.48,9.09 12.43,8.17 7.16,-0.83 14.39,-1.93 21.56,-1.75 3.81,0.1 7.56,-0.04 11.29,-0.25 10.21,14.48 19.78,29.46 28.73,44.95 -4.18,5.1 -7.5,10.87 -9.06,17.97 -0.9,4.11 -1.66,8.42 -3.47,12.15 h -12.98 c -9.82,-8.17 -21.83,-4.99 -33.22,-4.78 -1.61,0.03 -3.19,1.56 -4.79,2.36 -1.35,0.68 -2.51,1.5 -3.49,2.42 H 73.6953 c 30.2347,-62.12 69.7187,-116.53 118.5667,-163.1 128.183,-122.2 311.64,-183.28 550.437,-183.28 155.977,0 288.491,25.74 397.781,76.98 v 0 c -3.4,2.23 -7.2,2.89 -11.73,1.82"
         style="fill:#445db4;fill-opacity:1;fill-rule:nonzero;stroke:none"
         id="path46" />
      <path
         d="m 1403.2,1742.67 c 5.7,9.86 11.23,19.85 16.41,30.12 h -28.94 c 1.81,-3.73 2.57,-8.04 3.47,-12.15 1.56,-7.1 4.88,-12.87 9.06,-17.97"
         style="fill:#445db4;fill-opacity:1;fill-rule:nonzero;stroke:none"
         id="path48" />
      <path
         d="m 1339.68,1770.37 c 1.6,-0.8 3.18,-2.33 4.79,-2.36 11.39,-0.21 23.4,-3.39 33.22,4.78 h -41.5 c 0.98,-0.92 2.14,-1.74 3.49,-2.42"
         style="fill:#445db4;fill-opacity:1;fill-rule:nonzero;stroke:none"
         id="path50" />
      <path
         d="m 1422.22,2127.62 c 4.8,-1 8.18,-8.77 13.75,-15.31 6.59,-0.82 13.87,4.46 21.49,8.03 5.45,2.56 9.8,3.39 14.72,-1.22 1.96,-1.84 5.79,-2.23 8.79,-2.3 12.21,-0.24 24.48,0.57 36.6,-0.52 3.72,-0.33 7.45,-5.06 10.42,-8.44 3.7,-4.24 6.27,-9.56 13.61,-11 -0.93,6.46 -1.53,12.16 -2.61,17.75 -1.1,5.7 0.61,9.28 6.51,10.26 7.56,1.25 10,6.28 9.98,13.19 0,1.37 -0.02,2.74 -0.02,4.1 h -146.15 c 0.09,-0.37 0.31,-0.73 0.35,-1.1 0.88,-7.86 3.97,-11.62 12.56,-13.44"
         style="fill:#30b141;fill-opacity:1;fill-rule:nonzero;stroke:none"
         id="path52" />
      <path
         d="m 1333.93,1781.76 c 1.96,5.2 6.72,7.32 12.26,6.89 2.28,-0.18 4.53,-1 9.13,-2.07 -2.2,3.42 -2.82,5.59 -4.16,6.25 -3.56,1.73 -7.37,3.67 -11.18,3.93 -5.94,0.41 -8.95,3.09 -11.39,8.29 -1.34,2.86 -4.79,5.87 -7.79,6.58 -10.32,2.37 -20.64,3.28 -30.3,-3.34 -3.32,-2.27 -7.82,-2.97 -11.89,-3.91 -7.31,-1.69 -14.66,-3.34 -22.08,-4.4 -10.66,-1.54 -11.12,-0.49 -14.83,9.18 -1.66,4.36 -5.52,8.12 -9.04,11.47 -10.28,9.79 -9.28,15.37 4.12,20.53 1.57,0.59 3.16,1.13 6.73,2.4 -8.44,8.21 -15.74,15.32 -23.82,23.18 2.31,5.02 8.12,6.3 14.09,7.18 3.22,0.48 6.6,0.19 9.69,1.01 7.09,1.9 12.44,5.84 12.36,15.52 5.91,-1.2 10.47,-1.71 14.75,-3.08 9.06,-2.93 16.44,-1.08 24.3,4.59 9.1,6.56 20.12,10.14 31.55,9.38 13.37,-0.88 24.56,4.7 35.89,10.18 3.53,1.7 6.35,4.87 9.82,6.75 14.87,7.99 18.45,21.98 20.12,37.05 1,8.95 -0.71,19.53 3.54,26.47 5.41,8.82 4.55,18.01 6.96,26.85 1.03,3.82 -0.09,8.3 -0.56,12.44 -0.58,5.27 -2.01,10.5 -2.15,15.76 -0.15,6.84 -2.16,10.93 -8.88,11.14 -5.49,0.19 -11.27,-1.55 -16.51,-3.51 -3.57,-1.34 -6.79,-4.2 -9.57,-6.98 -4.95,-4.98 -10.52,-5.57 -17,-4.2 -5.28,1.11 -10.71,1.46 -16.06,2.27 -6.36,0.98 -8.23,5.19 -3.59,9.56 4.94,4.66 10.72,8.52 16.47,12.2 12.37,7.93 25.07,15.37 37.43,23.32 5.84,3.75 6.29,11.93 1,17.97 -8.69,9.93 -17.84,19.46 -26.5,29.42 -1.96,2.26 -2.71,5.57 -4.02,8.4 2.74,1.18 5.4,2.6 8.23,3.48 3.05,0.94 6.35,1.21 9.31,2.25 h -345.58 c -3.66,-108.51 -25.175,-188.03 -64.659,-238.39 -43.535,-55.51 -113.613,-83.24 -210.223,-83.24 -90.253,0 -158.546,27.94 -204.843,83.85 -42.266,50.98 -65.176,130.3 -68.887,237.78 H -0.00390625 v -5.39 c 0,-141.84 24.60940625,-263.13 73.69920625,-363.98 H 1336.19 c -2.49,2.28 -3.67,5.25 -2.26,8.97"
         style="fill:#30b141;fill-opacity:1;fill-rule:nonzero;stroke:none"
         id="path54" />
      <path
         d="m 1946.32,2117.02 c 0.53,-2.47 -0.06,-5.93 -1.56,-7.83 -1.03,-1.28 -4.73,-1.4 -6.83,-0.74 -7.88,2.5 -15.58,5.58 -23.39,8.32 -1.22,0.42 -2.67,0.21 -5.18,0.36 3.33,-8.45 6.57,-15.32 12.39,-21.57 7.52,-8.07 14.86,-17.04 19.4,-26.94 4.74,-10.33 6.06,-22.24 8.9,-33.45 0.63,-2.44 0.6,-5.65 2.17,-7.16 10.57,-10.1 3.04,-20.19 0.14,-30.13 -0.69,-2.35 -3.53,-4.08 -5.72,-6.47 -3.46,2.88 -6.14,5.11 -8.81,7.34 -0.41,-0.2 -0.8,-0.41 -1.2,-0.61 1.41,-2.8 2.84,-5.61 4.3,-8.52 -8.47,-5.4 -16.7,-10.65 -24.33,-15.52 0,-4.74 0,-7.97 0,-11.49 6.5,-2.24 11.04,-5.91 13.06,-13.14 1.41,-5 4.81,-9.93 11.59,-9.73 6.37,0.19 13.33,-1.22 16.16,7.17 0.54,1.61 2.21,2.81 3.14,4.34 9.09,15.03 14.08,16.93 31.91,13.6 8.44,-1.58 17.2,-3.3 25.68,-2.73 9.57,0.67 17.95,-0.73 25.52,-3.54 -30.97,48.44 -53.04,109.66 -66.27,183.58 h -46.56 c 3.68,-5.95 7.37,-11.92 11.06,-17.87 1.51,-2.43 3.87,-4.66 4.43,-7.27"
         style="fill:#30b141;fill-opacity:1;fill-rule:nonzero;stroke:none"
         id="path56" />
      <path
         d="m 3157.22,2142.16 h -501.8 c -13.87,-82.64 -38.14,-148.82 -72.94,-198.25 -57.91,-82.26 -146.74,-123.38 -266.55,-123.38 -83.84,0 -152.67,21.55 -206.68,64.45 2.13,-12.01 2.97,-24.5 2.09,-36.6 -0.58,-8.13 -5.92,-15.89 -8.88,-23.89 -4.23,-11.52 -9,-22.9 -12.07,-34.73 -1.98,-7.62 -6.1,-12.84 -11.95,-16.97 h 964.33 c 59.23,101.51 97.38,224.63 114.45,369.37"
         style="fill:#30b141;fill-opacity:1;fill-rule:nonzero;stroke:none"
         id="path58" />
      <path
         d="m 1380.19,1774.99 c -0.81,-0.87 -1.66,-1.51 -2.5,-2.2 h 12.98 c -0.05,0.09 -0.05,0.18 -0.1,0.27 -2.24,4.46 -6.14,6.51 -10.38,1.93"
         style="fill:#30b141;fill-opacity:1;fill-rule:nonzero;stroke:none"
         id="path60" />
      <path
         d="m 3167.65,2328.43 c 0,64.52 -3.63,125.4 -10.49,183.1 h -501.19 c 8.86,-54.15 13.35,-115.13 13.35,-183.1 0,-69.44 -4.69,-131.44 -13.9,-186.27 h 501.8 c 6.91,58.58 10.43,120.62 10.43,186.27"
         style="fill:#f9e205;fill-opacity:1;fill-rule:nonzero;stroke:none"
         id="path62" />
      <path
         d="m 1788.94,2458.41 c 3.52,-12.32 4.86,-24.7 12.72,-35.95 5.21,-7.48 7.96,-17.85 4.96,-27.97 -1.62,-5.44 -1.8,-10.6 1.06,-15.78 1.01,-1.82 1.12,-4.18 1.42,-6.33 3.5,-25.46 18.4,-42.1 40.59,-53.53 13.86,-7.13 25.7,-16.27 34.36,-30.14 7.37,-11.81 12.29,-24.27 17.09,-37.07 4.41,-11.76 8.62,-23.67 18.83,-32.29 1.66,-1.41 2.25,-6.98 0.91,-8.55 -6.44,-7.57 -5.12,-16.29 -5.15,-24.93 -0.02,-3.98 -0.28,-7.97 -0.42,-11.96 -0.23,-6.35 0.82,-12.07 5.96,-16.7 2.33,-2.09 3.57,-5.39 5.28,-8.14 1.42,-2.31 2.85,-4.61 4.28,-6.91 h 46.56 c -9.86,55.03 -14.84,117.07 -14.84,186.27 0,67.8 4.75,128.75 14.09,183.1 h -191.5 c -0.28,-17.78 -1.25,-35.42 3.8,-53.12"
         style="fill:#f9e205;fill-opacity:1;fill-rule:nonzero;stroke:none"
         id="path64" />
      <path
         d="m 1040.92,2488.47 c -2.69,2.04 -7.27,3.72 -4.45,8.31 2.2,3.59 5.95,3.61 9.68,1.87 0.96,-0.45 2.09,-0.62 3.15,-0.78 15.73,-2.36 29.99,-1.72 38.86,13.66 h -62.75 v -42.66 c 7.55,-0.57 14.56,2.9 21.83,3.46 2.95,7.98 -1.14,12.21 -6.32,16.14"
         style="fill:#f9e205;fill-opacity:1;fill-rule:nonzero;stroke:none"
         id="path66" />
      <path
         d="m 1580.68,2276.91 c -6.84,-10.06 -12.14,-17.84 -18.6,-27.32 -2.57,4.38 -4.78,6.83 -5.52,9.66 -2.01,7.62 -3.34,15.41 -5.08,23.11 -0.47,2.05 -0.86,4.73 -2.29,5.85 -8.08,6.38 -7.93,15.92 -9.86,24.59 -2.76,12.34 -4.96,24.8 -7.81,37.13 -0.61,2.62 -2.5,5.31 -4.53,7.2 -5.06,4.69 -5.07,9.66 -0.84,14.33 12.32,13.59 21.13,29.97 35.3,42.27 7.33,6.35 11.95,15.84 17.69,23.75 -5.68,2.64 -10.19,4.55 -14.52,6.79 -4.33,2.26 -7.88,2.43 -11.69,-1.4 -8.36,-8.42 -19.34,-12.14 -30.27,-15.91 -9.82,-3.39 -19.53,-7.12 -29.27,-10.75 -9.19,-3.41 -11.63,-3.23 -17.32,5.27 -6.46,9.65 -14.38,16.86 -25.73,20.53 0,-1.09 -0.41,-2.38 0.06,-3.02 10.75,-14.96 3.77,-19.2 -4.1,-29.38 -3.42,-4.45 -7.5,-4.27 -9.68,-0.26 -5.36,9.86 -15.77,15.4 -20.05,26.51 -3.68,9.55 -11.87,16.32 -24.08,16.54 -9.46,-11.93 -5.21,-26.29 -5.07,-40.33 -6.94,0.5 -7.01,5.3 -8.19,9.2 -1.85,6.17 -3.22,12.55 -5.71,18.46 -3.63,8.61 -9.07,16.52 -7.83,26.63 0.22,1.8 -1.63,3.84 -2.5,5.78 -4.27,9.5 -1.58,17.75 8.29,20.98 7.15,2.34 11.32,6.64 15.41,12.52 1.51,2.18 3.45,4.05 5.44,5.89 h -122.51 c 0.78,-3.58 2.76,-7.03 5.27,-10.76 6.81,-10.13 12.05,-21.34 17.66,-32.24 5.47,-10.66 3.63,-15.46 -7.07,-20.51 -3.6,-1.71 -7.09,-3.66 -10.64,-5.5 0.21,-1.01 0.42,-2.02 0.64,-3.02 4.05,-0.41 8.1,-1.02 12.18,-1.2 4.7,-0.2 9.46,0.31 14.13,-0.09 7.12,-0.62 12.23,-5.39 12.69,-12.55 1.1,-16.68 1.51,-33.41 -6.57,-48.86 -1.81,-3.44 -4.33,-6.53 -6.63,-9.71 -2.31,-3.16 -5,-6.06 -7.09,-9.36 -5.96,-9.43 -12.67,-12.45 -23.91,-10.4 -13.94,2.53 -15.62,1.81 -21.42,-11.42 -3.72,-8.5 -11.06,-13.29 -18.09,-18.22 -5.73,-4.02 -10.35,0.05 -14.19,4.05 -3.82,4.01 -5.16,12.1 -11.87,10.98 -4.58,-0.77 -8.57,-5.77 -12.58,-9.16 -6.64,-5.61 -9.72,-5.08 -13.33,2.96 -2.77,6.2 -7.45,7.92 -13.99,7.47 -3.55,-0.24 -8.94,0.24 -10.37,2.44 -1.58,2.4 0.12,7.25 1.02,10.87 0.68,2.75 2.71,5.16 3.51,7.9 1.51,5.26 1.12,10.07 -4.66,12.91 -2.25,1.11 -4.21,2.83 -6.48,3.9 -7.33,3.42 -10.78,8.97 -10.82,17.15 -0.05,8.63 -3.41,16.04 -10.32,22.8 -5.32,-3.12 -10.93,-5.64 -15.54,-9.38 -3.09,-2.51 -5.67,-6.46 -6.9,-10.28 -2.05,-6.31 -5.26,-10.68 -11.42,-13.53 -5.82,-2.67 -11.12,-6.49 -17.82,-10.51 -7.29,5.88 -14.47,11.31 -21.21,17.22 -5.63,4.95 -11.78,8.56 -19.29,8.9 -4.25,0.19 -7.12,1.66 -9.3,4 V 2176.3 c 0,-11.72 -0.25,-23.03 -0.63,-34.14 h 345.58 c 0.35,0.12 0.74,0.15 1.07,0.3 7.16,3.17 14.23,6.63 21.01,10.52 6.34,3.67 10.31,0.76 13.67,-4.09 1.39,-2.02 2.65,-4.37 3.2,-6.73 h 146.15 c 0,1.9 0.02,3.8 -0.04,5.71 -0.18,6.3 1.24,11.72 5.17,17.17 5.03,6.98 8.41,15.13 12.68,23.09 -3.41,0.71 -6.42,1.34 -9.99,2.08 0.74,7.26 0.64,14.23 2.36,20.73 1.5,5.69 3.81,11.26 11.56,12.77 6.51,1.25 11.26,5.5 11.51,13.64 0.11,3.44 3.1,7.07 5.46,10.1 4.89,6.3 9.13,12.77 10.38,20.85 -7.41,6.41 -18.5,-5.94 -23.87,8.61"
         style="fill:#f9e205;fill-opacity:1;fill-rule:nonzero;stroke:none"
         id="path68" />
      <path
         d="m 475.57,2173.9 v 337.63 H -0.00390625 V 2142.16 H 476.168 c -0.352,10.35 -0.598,20.87 -0.598,31.74"
         style="fill:#f9e205;fill-opacity:1;fill-rule:nonzero;stroke:none"
         id="path70" />
      <path
         d="m 1771.77,2819.2 c -7.99,-11.16 -15.83,-22.52 -29.51,-27.91 -2.4,-0.94 -4.91,-4.43 -5.35,-7.08 -2.36,-14.19 -9.79,-24.42 -22.02,-31.73 -4.29,-2.57 -7.69,-6.6 -11.81,-9.5 -2.84,-2 -6.22,-4.45 -9.38,-4.5 -6.62,-0.09 -9.7,-3.78 -12.03,-8.09 3.66,-16.44 15.2,-26.02 28.01,-33.83 -5.78,-10 -17.74,-16.54 -25.84,-13.26 -15.88,6.45 -29.79,1.05 -43.65,-5.46 -7.16,-3.37 -13.86,-7.75 -20.75,-11.68 -4.82,-2.74 -6.15,-7.87 -2.21,-11.53 3.33,-3.1 7.76,-5.04 11.73,-7.42 15.4,-9.23 28.59,-4.84 41.31,5.99 7.9,6.74 10.78,6.05 18.06,-1.93 1.94,-2.13 3.6,-4.54 5.22,-6.92 4.6,-6.77 10.35,-10.49 18.75,-12.99 20.04,-5.95 37.52,-15.78 44.03,-38.5 4.47,-15.59 10.98,-30.53 22.14,-42.98 5.28,-5.89 6.97,-13.4 6.83,-21.28 -0.09,-5.08 -0.06,-10.16 -0.13,-15.24 0,-0.61 -0.02,-1.22 -0.03,-1.83 h 191.5 c 37.71,219.66 151.56,329.61 341.69,329.61 116.61,0 204.24,-41.74 262.95,-125.19 35.88,-51.01 60.75,-119.22 74.69,-204.42 h 501.19 c -17.15,144.46 -55.73,267.63 -115.84,369.37 H 1804.51 c -8.83,-12.19 -15.06,-25.94 -19.83,-40.74 -2.44,-7.6 -8.11,-14.28 -12.91,-20.96"
         style="fill:#f36118;fill-opacity:1;fill-rule:nonzero;stroke:none"
         id="path72" />
      <path
         d="m 1397.07,2582.78 c -0.34,-5.77 -3.75,-8.13 -9.5,-7.86 -10.29,0.47 -20.54,10.42 -21.31,20.79 -0.26,3.57 -0.16,7.41 -1.46,10.62 -4.24,10.44 -3.99,14.36 3.73,21.84 3.07,2.98 6.85,5.3 10.54,7.54 6.56,3.96 10.89,2.46 12.75,-5.03 2.68,-10.7 4.62,-21.59 6.88,-32.4 -0.52,-0.1 -1.05,-0.21 -1.57,-0.31 0,-5.06 0.24,-10.15 -0.06,-15.19 z m 48.02,5.15 c -0.31,2.52 -0.58,5.04 -0.65,7.57 -0.32,10.8 -0.2,11.09 -10.29,14.48 -5.19,1.75 -6.75,5.04 -6.38,9.87 0.51,6.4 -2.68,8.85 -8.71,9.98 -10.83,2.04 -14.16,12.42 -19.75,19.95 -1.19,1.61 1.72,6.26 2.72,9.44 -4.89,1.29 -10.75,2.83 -17.51,4.61 -0.15,-2.77 -0.26,-6.55 -0.59,-10.3 -0.5,-5.67 -3.28,-9.82 -9.19,-10.38 -9.59,-0.9 -12.89,-7.67 -13.73,-15.42 -1.06,-9.72 -4.77,-17.87 -9.82,-26.05 -3.49,-5.66 -5.12,-12.54 -7.19,-18.98 -1.52,-4.73 -1.56,-10.15 -3.93,-14.32 -1.64,-2.88 -6.07,-5.77 -9.31,-5.83 -7.03,-0.11 -14.11,1.58 -20.89,2.49 -1.84,10.59 0.06,18.65 7.21,24.98 4.05,3.59 5.29,8.1 6.39,13.28 1.48,6.88 4.65,13.38 7.15,20.02 0.24,0.65 1.25,1.14 1.27,1.72 0.49,10.68 7.3,17.44 14.46,24.16 3.15,2.95 2.1,6.7 0.13,9.96 -3,4.91 -4.94,9.14 0.02,14.59 1.69,1.87 0.9,7.97 -0.94,10.65 -3.92,5.69 -2.64,10.06 1.02,14.74 3.33,4.28 6.34,8.84 10,12.82 7.06,7.69 12.22,15.8 8.38,27.52 -1.49,-0.96 -3.27,-1.53 -4.15,-2.76 -9.96,-13.73 -19.4,-27.83 -29.74,-41.24 -6.07,-7.88 -14.6,-13.77 -18.7,-23.34 -0.59,-1.36 -2.74,-2.51 -4.37,-2.9 -4.8,-1.15 -6.29,-4.5 -6.49,-8.81 -0.34,-6.72 -1.77,-12.82 -7.25,-17.52 -5.2,-4.45 -10.93,-6.64 -17.8,-6.12 -1.73,0.13 -3.53,-0.97 -5.3,-1.02 -2.58,-0.07 -6.67,-0.6 -7.43,0.67 -1.46,2.45 -1.59,6.08 -1.21,9.1 0.23,1.87 2.49,3.44 3.68,5.26 2.89,4.42 3.06,8.68 -0.8,12.79 -3.35,3.54 -6.46,3.45 -10.56,0.86 -1.95,-1.25 -5.18,-0.5 -7.83,-0.66 0.18,2.61 -0.23,5.45 0.67,7.79 2.56,6.68 5.62,13.18 8.55,19.71 2.91,6.46 7.71,9.82 13.52,7.81 6.73,-2.34 11.79,-1.4 16.71,3.62 1.6,1.64 4.48,2.01 7.11,3.1 2.41,-2.52 4.62,-4.84 7.89,-8.26 4.22,3.78 8.94,7.05 12.4,11.33 6.4,7.92 11.99,16.06 23.4,17.91 3.34,0.55 6.91,5.23 8.69,8.84 6.94,14.18 17.42,25.4 29.13,35.43 3.89,3.34 7.09,6.2 6.81,11.37 -0.34,6.29 3.25,10.02 7.48,13.22 -4.8,2.96 -9.65,5.93 -16.11,9.89 -0.91,-4.79 -2.07,-8.69 -2.33,-12.64 -0.88,-13.67 -13.33,-21.37 -27,-19.87 -13.85,1.53 -28.11,0.19 -42.11,-0.99 -8.32,-0.71 -10.69,-0.65 -11.77,5.02 -1.6,8.34 1.39,13.47 8.73,14.14 4.44,0.39 7.76,1.6 11.55,4.52 6.05,4.68 6.67,8.51 2.5,14.41 -1.57,2.22 -1.96,5.25 -2.92,7.91 -1.19,3.3 -1.89,6.93 -3.74,9.82 -6.14,9.57 -1.71,18.86 9.82,19.5 10.27,0.56 20.7,2.27 31.01,-3.98 -0.15,6.99 -4.5,6.12 -7.7,6.53 -5.52,0.72 -10.44,1.93 -14.02,6.98 -2.93,4.12 -2.63,7.01 0.93,10.34 7.41,6.94 16.11,7.91 25.34,5.5 13.13,-3.43 12.94,-3.49 20.84,5.99 0.62,0.76 1.04,1.47 1.45,2.17 h -348.43 v -369.37 h 62.75 c 0.52,0.89 1.07,1.63 1.54,2.61 4.64,9.65 11.26,18.32 16.28,27.81 6.3,11.9 14.64,14.76 26.21,7.91 4.38,-2.6 8.51,-3.61 13.2,-0.66 9.04,5.71 19.85,8.37 27.2,17.17 1.86,2.21 7.63,3.05 10.72,1.97 8.92,-3.12 17.49,-2.14 25.38,1.6 11.27,5.34 21.13,3.32 30.54,-3.47 4.96,-3.58 9.89,-5.08 16.13,-4.63 8.57,0.62 12.38,-3.21 13.88,-11.71 1.01,-5.69 2.43,-11.34 3.2,-17.06 0.43,-3.18 1.01,-7.14 -0.42,-9.63 -2.53,-4.4 -3,-8.22 -2.2,-11.91 h 122.51 c 3.02,2.8 6.22,5.48 8.58,8.74 4.57,6.3 7.09,14.09 11.72,20.34 5.72,7.75 11.61,16.18 19.39,21.44 11.98,8.09 14.89,11.31 13.07,25.88"
         style="fill:#f36118;fill-opacity:1;fill-rule:nonzero;stroke:none"
         id="path74" />
      <path
         d="M 475.57,2880.9 H -0.00390625 V 2511.53 H 475.57 v 369.37"
         style="fill:#f36118;fill-opacity:1;fill-rule:nonzero;stroke:none"
         id="path76" />
      <path
         d="M 475.57,3201.71 H -0.00390625 V 2880.9 H 475.57 v 320.81"
         style="fill:#ed1a31;fill-opacity:1;fill-rule:nonzero;stroke:none"
         id="path78" />
      <path
         d="m 1685.53,2998.96 c 5.64,-6.41 12.34,-8.45 20.4,-7.55 1.09,0.12 2.19,-0.03 3.26,0.12 15.95,2.12 30.52,-2.29 45.29,-7.91 12.6,-4.81 26.1,-4.96 38.96,0.65 11.05,4.84 13.26,4.36 21.32,-4.64 6.94,-7.73 15.7,-14.33 17.38,-25.49 1.66,-10.93 4.41,-22.1 3.5,-32.91 -0.83,-9.74 -8.84,-17.05 -16.25,-23.67 -5.71,-5.1 -10.59,-10.71 -14.88,-16.66 h 1236.81 c -25.84,43.75 -55.5,83.71 -89.28,119.56 -143.76,152.53 -354.99,228.8 -633.71,228.8 -277.05,0 -488.39,-76.43 -634.1,-229.21 v 0 c 0.42,-0.4 0.91,-0.64 1.3,-1.09"
         style="fill:#ed1a31;fill-opacity:1;fill-rule:nonzero;stroke:none"
         id="path80" />
      <path
         d="m 1271.46,3067.45 c -3.36,-6.38 -7.17,-12.6 -11.52,-18.33 -4.09,-5.35 -6.11,-10.9 -7.37,-17.58 -0.91,-4.88 -6.16,-8.93 -10.33,-14.49 1.96,-8.53 0.02,-17.66 -4.88,-27.31 -4.1,-8.08 -9.47,-17.22 -3.2,-29.63 -5.41,1.28 -9.12,1.19 -11.54,2.9 -12.31,8.69 -15.57,24.94 -7.79,38.3 9.62,16.51 10.22,34.98 12.15,53.19 0.3,2.86 -0.21,5.8 -0.08,8.69 0.45,9.74 2.98,13.3 12.14,15.31 8.26,1.83 15.78,3.98 21.07,11.59 2.96,4.26 6.76,2.67 8.51,-2.66 1.2,-3.66 3.19,-7.14 3.84,-10.87 0.5,-2.93 0.35,-6.58 -1,-9.11 z m 128.79,134.26 c -3.48,-13.09 -9.65,-24.29 -19.69,-33.8 -4.39,-4.16 -7.99,-9.41 -10.98,-14.72 -2.38,-4.23 -4.25,-9.2 -4.66,-13.99 -1.18,-13.85 -14.13,-28.49 -27.68,-28.58 -14.29,-0.09 -25.95,-4.64 -35.71,-15.05 -2.86,-3.05 -6.82,-5.41 -10.7,-7.16 -6.75,-3.03 -13.22,1.36 -13.71,8.81 -0.66,10.06 0.88,11.55 10.08,14.44 4.99,1.57 9.77,4.55 13.94,7.8 3.97,3.1 2.63,8.84 -2.19,11.52 -4.91,2.73 -9.95,5.23 -16.27,8.54 4.44,5.33 8.99,8.86 10.84,13.48 1.92,4.82 0.52,10.85 1.87,16.03 3.73,14.43 6.85,16.75 21.23,18.38 2.44,0.27 5.12,0.8 7.13,2.08 6.93,4.42 14.02,8.44 21.24,12.22 H 1025.41 V 2880.9 h 348.43 c 1.77,3.03 1.49,5.61 -2.66,7.18 -6.07,2.31 -5.85,6.46 -3.15,10.26 4.58,6.44 6.39,15.96 17.29,16.01 -1.03,9.04 1.37,15.38 10.01,18.45 1.79,0.64 2.7,3.82 3.05,6.81 -15.41,-1.77 -21.36,-19.59 -38.8,-19.49 -7.63,10.45 6.62,17.42 7.19,29.28 -4.78,-3.05 -8.51,-5.42 -12.73,-8.11 -4.08,4.18 -9.28,5.98 -15.02,7.85 -8.38,2.73 -13.87,10.99 -15.5,19.52 -2.65,13.88 -9.14,24.61 -19.89,33.48 -3.42,2.82 -5.81,7.26 -7.74,11.38 -2.4,5.15 -3.12,11.44 1.84,14.99 3.36,2.4 8.75,1.94 15.39,3.17 0.61,4.39 1.54,11.16 2.57,18.69 10.38,-3.12 12.21,-13.45 21.03,-18.3 1.7,5.94 3.83,11.61 4.84,17.47 1.09,6.34 3.86,9.51 10.56,9.99 6.73,0.49 10.77,-2.54 11.94,-8.44 1.6,-8.08 2.23,-16.36 2.96,-24.58 0.38,-4.31 0.06,-8.66 0.06,-14.73 3.72,2.25 6.1,4.22 8.85,5.19 2.14,0.76 6.19,1.17 6.81,0.16 1.26,-2.08 1.8,-5.66 0.83,-7.82 -2.48,-5.54 -5.94,-10.66 -8.39,-14.9 4.31,-8.79 8.14,-16.59 12.5,-25.48 11.86,-2.27 16.44,-0.14 19.89,10.7 -3.49,0.84 -8.58,0.6 -10.07,2.8 -2.17,3.2 -2.08,8.14 -2.35,12.38 -0.37,5.78 -0.38,11.61 -0.21,17.4 0.39,13.2 2.61,15.02 17.28,13 -0.88,4.12 -1.93,7.68 -2.33,11.3 -0.54,4.88 -2.44,10.89 -0.39,14.5 4.01,7.09 4.71,14.11 4.91,21.8 0.22,9.04 1.57,9.82 11.01,10.41 1.96,0.12 4.31,0.69 5.73,1.92 10.18,8.85 12.75,8.47 18.86,-3.2 0.48,-0.9 1.3,-1.62 1.33,-1.66 9.53,1.49 18.37,2.87 27.67,4.33 1.68,7.28 -4.22,9.98 -9.14,12.24 -4.74,2.18 -10.02,3.05 -9.44,9.85 0.62,7.07 7.26,14.32 13.61,15.2 1.39,0.19 2.77,0.55 5.62,1.12 -1.06,6.77 -1.92,13.34 -3.15,19.85 -1.93,10.2 3.49,15.96 13.58,14.1 2.83,-0.52 5.66,-1.13 8.49,-1.67 v 46.41 h -98.33"
         style="fill:#ed1a31;fill-opacity:1;fill-rule:nonzero;stroke:none"
         id="path82" />
      <path
         d="M 475.57,2906.76 180.621,3201.71 H -0.00390625 v -34.27 L 475.57,2691.86 v 214.9"
         style="fill:#1f191b;fill-opacity:1;fill-rule:nonzero;stroke:none"
         id="path84" />
      <path
         d="m 545.055,1904.38 c -28.418,34.28 -48.086,81.4 -59.063,141.24 L 125.914,1685.54 c 19.793,-27.22 41.883,-52.53 66.348,-75.85 12.441,-11.85 25.554,-22.96 39.023,-33.66 l 320.606,320.59 c -2.325,2.54 -4.629,5.08 -6.836,7.76"
         style="fill:#1f191b;fill-opacity:1;fill-rule:nonzero;stroke:none"
         id="path86" />
      <path
         d="m 475.57,2173.9 v 76.18 L 51.0391,1825.57 c 19.4257,-51.29 44.3281,-98.02 74.8749,-140.03 l 360.078,360.08 c -6.926,37.7 -10.422,80.43 -10.422,128.28"
         style="fill:#7b401a;fill-opacity:1;fill-rule:nonzero;stroke:none"
         id="path88" />
      <path
         d="M 475.57,2691.86 -0.00390625,3167.44 v -214.9 L 475.57,2476.96 v 214.9"
         style="fill:#7b401a;fill-opacity:1;fill-rule:nonzero;stroke:none"
         id="path90" />
      <path
         d="M 475.57,2476.96 -0.00390625,2952.54 V 2737.63 L 374.105,2363.52 8.83203,1998.26 C 17.0547,1935.82 31.0977,1878.23 51.0391,1825.57 L 475.57,2250.08 v 226.88"
         style="fill:#7fd6f4;fill-opacity:1;fill-rule:nonzero;stroke:none"
         id="path92" />
      <path
         d="M -0.00390625,2737.63 V 2522.74 L 159.203,2363.53 -0.00390625,2204.32 v -67.55 c 0,-48.63 3.06640625,-94.7 8.83593625,-138.51 L 374.105,2363.52 -0.00390625,2737.63"
         style="fill:#f574bd;fill-opacity:1;fill-rule:nonzero;stroke:none"
         id="path94" />
      <path
         d="M -0.00390625,2522.74 V 2204.32 L 159.203,2363.53 Z"
         style="fill:#ffffff;fill-opacity:1;fill-rule:nonzero;stroke:none"
         id="path96" />
    </g>
  </g>
</svg>
